HIERARCHY
ROOT root
{
	OFFSET	0	13.1	24.9
	CHANNELS 6  Xposition Yposition Zposition Xrotation Yrotation Zrotation
	JOINT spine_1
	{
		OFFSET	0	9.99999	0
		CHANNELS 3  Xrotation Yrotation Zrotation
		JOINT spine_2
		{
			OFFSET	0	112	-10
			CHANNELS 3  Xrotation Yrotation Zrotation
			JOINT spine_3
			{
				OFFSET	0	206.5	19.3
				CHANNELS 3  Xrotation Yrotation Zrotation
				JOINT spine_4
				{
					OFFSET	0	110.4	14.6
					CHANNELS 3  Xrotation Yrotation Zrotation
					JOINT neck_1
					{
						OFFSET	0	71.8	-50.3
						CHANNELS 3  Xrotation Yrotation Zrotation
						JOINT neck_2
						{
							OFFSET	0	86.2	-25.8
							CHANNELS 3  Xrotation Yrotation Zrotation
							JOINT head_ee
							{
								OFFSET	0	179.8	-8.7
								CHANNELS 3  Xrotation Yrotation Zrotation
								End Site
								{
									OFFSET	1	0	0
								}
							}
						}
					}
					JOINT left_clavicle
					{
						OFFSET	-43.2	22.4	-70.8
						CHANNELS 3  Xrotation Yrotation Zrotation
						JOINT left_shoulder
						{
							OFFSET	-93.9	-5.79999	48.7
							CHANNELS 3  Xrotation Yrotation Zrotation
							JOINT left_elbow
							{
								OFFSET	-291.4	-30.8	15.2
								CHANNELS 3  Xrotation Yrotation Zrotation
								JOINT left_lowarm_twist
								{
									OFFSET	-110.7	-3.89999	13.6
									CHANNELS 3  Xrotation Yrotation Zrotation
									JOINT left_hand
									{
										OFFSET	-110.7	-3.89999	13.6
										CHANNELS 3  Xrotation Yrotation Zrotation
										JOINT left_ee
										{
											OFFSET	-80.8	-5.10001	12.1
											CHANNELS 3  Xrotation Yrotation Zrotation
											End Site
											{
												OFFSET	1	0	0
											}
										}
									}
								}
							}
						}
					}
					JOINT right_clavicle
					{
						OFFSET	43.2	22.4	-70.8
						CHANNELS 3  Xrotation Yrotation Zrotation
						JOINT right_shoulder
						{
							OFFSET	93.9	-5.79999	48.7
							CHANNELS 3  Xrotation Yrotation Zrotation
							JOINT right_elbow
							{
								OFFSET	291.4	-30.8	15.2
								CHANNELS 3  Xrotation Yrotation Zrotation
								JOINT right_lowarm_twist
								{
									OFFSET	110.7	-3.89999	13.6
									CHANNELS 3  Xrotation Yrotation Zrotation
									JOINT right_hand
									{
										OFFSET	110.7	-3.89999	13.6
										CHANNELS 3  Xrotation Yrotation Zrotation
										JOINT right_ee
										{
											OFFSET	80.8	-5.10001	12.1
											CHANNELS 3  Xrotation Yrotation Zrotation
											End Site
											{
												OFFSET	1	0	0
											}
										}
									}
								}
							}
						}
					}
				}
			}
		}
	}
	JOINT left_hip
	{
		OFFSET	-82.8	-127.5	0.300001
		CHANNELS 3  Xrotation Yrotation Zrotation
		JOINT left_knee
		{
			OFFSET	-28.2	-396.7	2.2
			CHANNELS 3  Xrotation Yrotation Zrotation
			JOINT left_ankle
			{
				OFFSET	-11.7	-411.3	35.4
				CHANNELS 3  Xrotation Yrotation Zrotation
				JOINT left_toes
				{
					OFFSET	0	-60	-88.6
					CHANNELS 3  Xrotation Yrotation Zrotation
					JOINT left_foot_ee
					{
						OFFSET	-22.5	-16.5	-42.2
						CHANNELS 3  Xrotation Yrotation Zrotation
						End Site
						{
							OFFSET	1	0	0
						}
					}
				}
			}
		}
	}
	JOINT right_hip
	{
		OFFSET	82.8	-127.5	0.300001
		CHANNELS 3  Xrotation Yrotation Zrotation
		JOINT right_knee
		{
			OFFSET	28.2	-396.7	2.2
			CHANNELS 3  Xrotation Yrotation Zrotation
			JOINT right_ankle
			{
				OFFSET	11.7	-411.3	35.4
				CHANNELS 3  Xrotation Yrotation Zrotation
				JOINT right_toes
				{
					OFFSET	0	-60	-88.6
					CHANNELS 3  Xrotation Yrotation Zrotation
					JOINT right_foot_ee
					{
						OFFSET	22.5	-16.5	-42.2
						CHANNELS 3  Xrotation Yrotation Zrotation
						End Site
						{
							OFFSET	1	0	0
						}
					}
				}
			}
		}
	}
}
MOTION
Frames: 16
Frame Time: 0.02
3574.42 741.953 -1474.73 -168.591434466 81.363794429 167.708757098 0.266932 0.124737 1.04844 0.267541 0.0577729 1.05425 0.268865 -0.160215 1.04361 0.267345 0.00660445 1.05581 -20.7791 1.05674 -0.242753 -20.786 2.15851 0.229395 -0.0 0.0 -0.0 5.45698 18.458 10.4681 -11.2922 -35.2258 55.4182 1.04088 -27.2759 0.252551 -68.2577 -6.32389 5.28322 -0.0498451 15.2493 5.92844 -0.0 0.0 -0.0 8.07832 10.4211 -15.6671 -20.5381 15.0929 -67.5915 0.709724 19.3705 -0.121129 -13.01 0.635559 -1.53368 -1.71675 -8.70491 7.48114 0.0 0.0 0.0 1.52126 44.4369 -2.95215 5.87525 -0.28613 -0.855532 6.62315 -29.56 -1.20198 -31.4496 0.0 0.0 -0.0 0.0 -0.0 9.14834 4.48048 4.55071 -19.0401 -0.305826 -2.89242 20.1356 11.7951 2.90354 -2.82823 0.0 0.0 0.0 0.0 0.0 
3573.51084077 740.072 -1474.24765315 -167.533691849 81.1251117631 166.91572079 0.381764 0.0974709 0.985708 0.382304 0.0345533 0.989912 0.383107 -0.167766 0.976206 0.381776 -0.0114945 0.990448 -20.6877 0.133454 -1.39105 -20.6837 0.947611 -1.23403 -0.0 0.0 -0.0 5.33352 18.3142 10.2814 -11.9649 -35.4546 54.6334 1.14188 -29.494 0.300578 -67.4683 -6.22343 5.27236 -0.0934877 13.5121 4.96422 -0.0 0.0 -0.0 7.89295 9.92373 -15.2869 -20.6811 15.1749 -67.6849 0.686703 18.7869 -0.113604 -12.27 0.590167 -1.45057 -1.82974 -10.2174 7.49641 0.0 0.0 0.0 1.10645 44.029 -2.09981 7.12146 -0.358036 -1.03304 8.51291 -29.901 -1.54027 -30.5524 0.0 0.0 -0.0 0.0 -0.0 9.1824 4.70333 4.43051 -19.1871 -0.304425 -2.91495 20.2432 11.5454 2.91314 -2.25183 0.0 0.0 0.0 0.0 0.0 
3568.81581488 738.229 -1476.15146618 -165.039851626 82.0909847901 164.218697255 0.522927 0.143442 1.05739 0.523546 0.0758706 1.06437 0.525187 -0.139851 1.05787 0.523626 0.0289652 1.06668 -21.167 0.711561 -0.485383 -21.1705 1.60964 -0.139357 -0.0 0.0 -0.0 5.31786 18.1703 10.2614 -12.5227 -35.5727 54.1017 1.14957 -29.659 0.304372 -67.0161 -6.16595 5.26551 -0.314623 13.406 3.53203 -0.0 0.0 -0.0 7.78525 9.63159 -15.0668 -20.9102 15.2414 -67.7099 0.703017 19.2009 -0.118914 -12.112 0.580617 -1.43276 -2.00876 -11.252 8.15087 0.0 0.0 0.0 1.00891 41.3173 -2.35584 6.68724 -0.332542 -0.971364 7.00999 -29.6794 -1.2723 -30.0548 0.0 0.0 -0.0 0.0 -0.0 9.17338 4.8982 4.38711 -19.2534 -0.303774 -2.9251 21.6016 12.4101 3.1025 -2.08925 0.0 0.0 0.0 0.0 0.0 
3566.06702515 736.74 -1477.91655789 -160.660857858 83.4914355661 159.579216673 0.654629 0.156638 1.04109 0.655228 0.0900768 1.04895 0.657086 -0.120421 1.0459 0.655562 0.0462611 1.05179 -21.5125 0.608647 -0.425793 -21.5151 1.37961 -0.125267 -0.0 0.0 -0.0 5.22641 18.0154 10.1235 -13.0578 -35.6294 53.638 1.1586 -29.852 0.308852 -67.0711 -6.17294 5.26637 -0.287097 12.291 3.24764 -0.0 0.0 -0.0 7.68072 9.19867 -14.8582 -20.8501 15.403 -67.9466 0.704691 19.2433 -0.119465 -11.9978 0.573743 -1.41986 -2.10352 -11.4661 8.65521 0.0 0.0 0.0 0.882093 42.7044 -2.21599 6.78768 -0.338397 -0.985646 9.05062 -29.7117 -1.62968 -29.6688 0.0 0.0 -0.0 0.0 -0.0 9.2222 4.66233 4.29895 -19.2506 -0.303803 -2.92466 22.1091 12.4544 3.16755 -1.71118 0.0 0.0 0.0 0.0 0.0 
3566.11642187 736.74 -1478.04314507 -157.76943576 84.3058817954 156.671403147 0.654629 0.156638 1.04109 0.655228 0.0900768 1.04895 0.657086 -0.120421 1.0459 0.655562 0.0462611 1.05179 -21.5125 0.608647 -0.425793 -21.5151 1.37961 -0.125267 -0.0 0.0 -0.0 5.22641 18.0154 10.1235 -13.0578 -35.6294 53.638 1.1586 -29.852 0.308852 -67.0711 -6.17294 5.26637 -0.287097 12.291 3.24764 -0.0 0.0 -0.0 7.68072 9.19867 -14.8582 -20.8501 15.403 -67.9466 0.704691 19.2433 -0.119465 -11.9978 0.573743 -1.41986 -2.10352 -11.4661 8.65521 0.0 0.0 0.0 0.882093 42.7044 -2.21599 6.78768 -0.338397 -0.985646 9.05062 -29.7117 -1.62968 -29.6688 0.0 0.0 -0.0 0.0 -0.0 9.2222 4.66233 4.29895 -19.2506 -0.303803 -2.92466 22.1091 12.4544 3.16755 -1.71118 0.0 0.0 0.0 0.0 0.0 
3566.18578468 736.74 -1478.21195894 -152.304128604 85.3675052696 151.184097811 0.654629 0.156638 1.04109 0.655228 0.0900768 1.04895 0.657086 -0.120421 1.0459 0.655562 0.0462611 1.05179 -21.5125 0.608647 -0.425793 -21.5151 1.37961 -0.125267 -0.0 0.0 -0.0 5.22641 18.0154 10.1235 -13.0578 -35.6294 53.638 1.1586 -29.852 0.308852 -67.0711 -6.17294 5.26637 -0.287097 12.291 3.24764 -0.0 0.0 -0.0 7.68072 9.19867 -14.8582 -20.8501 15.403 -67.9466 0.704691 19.2433 -0.119465 -11.9978 0.573743 -1.41986 -2.10352 -11.4661 8.65521 0.0 0.0 0.0 0.882093 42.7044 -2.21599 6.78768 -0.338397 -0.985646 9.05062 -29.7117 -1.62968 -29.6688 0.0 0.0 -0.0 0.0 -0.0 9.2222 4.66233 4.29895 -19.2506 -0.303803 -2.92466 22.1091 12.4544 3.16755 -1.71118 0.0 0.0 0.0 0.0 0.0 
3566.26254855 736.74 -1478.38818614 -143.138364077 86.412403952 141.995181737 0.654629 0.156638 1.04109 0.655228 0.0900768 1.04895 0.657086 -0.120421 1.0459 0.655562 0.0462611 1.05179 -21.5125 0.608647 -0.425793 -21.5151 1.37961 -0.125267 -0.0 0.0 -0.0 5.22641 18.0154 10.1235 -13.0578 -35.6294 53.638 1.1586 -29.852 0.308852 -67.0711 -6.17294 5.26637 -0.287097 12.291 3.24764 -0.0 0.0 -0.0 7.68072 9.19867 -14.8582 -20.8501 15.403 -67.9466 0.704691 19.2433 -0.119465 -11.9978 0.573743 -1.41986 -2.10352 -11.4661 8.65521 0.0 0.0 0.0 0.882093 42.7044 -2.21599 6.78768 -0.338397 -0.985646 9.05062 -29.7117 -1.62968 -29.6688 0.0 0.0 -0.0 0.0 -0.0 9.2222 4.66233 4.29895 -19.2506 -0.303803 -2.92466 22.1091 12.4544 3.16755 -1.71118 0.0 0.0 0.0 0.0 0.0 
3566.37843114 736.74 -1478.63634231 -117.415296035 87.57643641 116.239146435 0.654629 0.156638 1.04109 0.655228 0.0900768 1.04895 0.657086 -0.120421 1.0459 0.655562 0.0462611 1.05179 -21.5125 0.608647 -0.425793 -21.5151 1.37961 -0.125267 -0.0 0.0 -0.0 5.22641 18.0154 10.1235 -13.0578 -35.6294 53.638 1.1586 -29.852 0.308852 -67.0711 -6.17294 5.26637 -0.287097 12.291 3.24764 -0.0 0.0 -0.0 7.68072 9.19867 -14.8582 -20.8501 15.403 -67.9466 0.704691 19.2433 -0.119465 -11.9978 0.573743 -1.41986 -2.10352 -11.4661 8.65521 0.0 0.0 0.0 0.882093 42.7044 -2.21599 6.78768 -0.338397 -0.985646 9.05062 -29.7117 -1.62968 -29.6688 0.0 0.0 -0.0 0.0 -0.0 9.2222 4.66233 4.29895 -19.2506 -0.303803 -2.92466 22.1091 12.4544 3.16755 -1.71118 0.0 0.0 0.0 0.0 0.0 
3566.52307268 736.74 -1478.92104747 -66.6252513969 87.6563151571 65.4106732324 0.654629 0.156638 1.04109 0.655228 0.0900768 1.04895 0.657086 -0.120421 1.0459 0.655562 0.0462611 1.05179 -21.5125 0.608647 -0.425793 -21.5151 1.37961 -0.125267 -0.0 0.0 -0.0 5.22641 18.0154 10.1235 -13.0578 -35.6294 53.638 1.1586 -29.852 0.308852 -67.0711 -6.17294 5.26637 -0.287097 12.291 3.24764 -0.0 0.0 -0.0 7.68072 9.19867 -14.8582 -20.8501 15.403 -67.9466 0.704691 19.2433 -0.119465 -11.9978 0.573743 -1.41986 -2.10352 -11.4661 8.65521 0.0 0.0 0.0 0.882093 42.7044 -2.21599 6.78768 -0.338397 -0.985646 9.05062 -29.7117 -1.62968 -29.6688 0.0 0.0 -0.0 0.0 -0.0 9.2222 4.66233 4.29895 -19.2506 -0.303803 -2.92466 22.1091 12.4544 3.16755 -1.71118 0.0 0.0 0.0 0.0 0.0 
3554.19163335 730.107 -1493.35599776 -36.5683579955 87.8430361404 34.9859667298 0.962808 0.192335 1.07201 0.963439 0.123734 1.08207 0.965956 -0.08817 1.08555 0.964321 0.084368 1.08585 -23.7414 0.909813 -0.151487 -23.7476 1.82269 0.298108 -0.0 0.0 -0.0 5.65695 19.7618 10.7232 -13.6621 -34.3237 54.0436 1.2712 -32.1979 0.366903 -78.0875 -7.57874 5.30141 -2.43784 12.921 -10.0703 -0.0 0.0 -0.0 7.91435 8.97575 -15.3605 -19.6999 13.7651 -67.4901 0.698823 19.0947 -0.117538 -9.41559 0.425277 -1.12478 -2.49886 -13.6363 10.0932 0.0 0.0 0.0 1.07913 39.3744 -3.25884 3.93294 -0.181823 -0.575934 9.82212 -28.0224 -1.72441 -27.6089 0.0 0.0 -0.0 0.0 -0.0 9.5151 -0.604414 4.46572 -23.398 -0.239835 -3.55772 25.0603 11.8624 3.51889 -1.95235 0.0 0.0 0.0 0.0 0.0 
3555.69542307 730.107 -1494.86715046 -11.7766484301 83.6923434268 10.1443682591 0.962808 0.192335 1.07201 0.963439 0.123734 1.08207 0.965956 -0.08817 1.08555 0.964321 0.084368 1.08585 -23.7414 0.909813 -0.151487 -23.7476 1.82269 0.298108 -0.0 0.0 -0.0 5.65695 19.7618 10.7232 -13.6621 -34.3237 54.0436 1.2712 -32.1979 0.366903 -78.0875 -7.57874 5.30141 -2.43784 12.921 -10.0703 -0.0 0.0 -0.0 7.91435 8.97575 -15.3605 -19.6999 13.7651 -67.4901 0.698823 19.0947 -0.117538 -9.41559 0.425277 -1.12478 -2.49886 -13.6363 10.0932 0.0 0.0 0.0 1.07913 39.3744 -3.25884 3.93294 -0.181823 -0.575934 9.82212 -28.0224 -1.72441 -27.6089 0.0 0.0 -0.0 0.0 -0.0 9.5151 -0.604414 4.46572 -23.398 -0.239835 -3.55772 25.0603 11.8624 3.51889 -1.95235 0.0 0.0 0.0 0.0 0.0 
3557.21282094 730.107 -1496.17825398 -7.11249134608 79.5660885855 5.43309631307 0.962808 0.192335 1.07201 0.963439 0.123734 1.08207 0.965956 -0.08817 1.08555 0.964321 0.084368 1.08585 -23.7414 0.909813 -0.151487 -23.7476 1.82269 0.298108 -0.0 0.0 -0.0 5.65695 19.7618 10.7232 -13.6621 -34.3237 54.0436 1.2712 -32.1979 0.366903 -78.0875 -7.57874 5.30141 -2.43784 12.921 -10.0703 -0.0 0.0 -0.0 7.91435 8.97575 -15.3605 -19.6999 13.7651 -67.4901 0.698823 19.0947 -0.117538 -9.41559 0.425277 -1.12478 -2.49886 -13.6363 10.0932 0.0 0.0 0.0 1.07913 39.3744 -3.25884 3.93294 -0.181823 -0.575934 9.82212 -28.0224 -1.72441 -27.6089 0.0 0.0 -0.0 0.0 -0.0 9.5151 -0.604414 4.46572 -23.398 -0.239835 -3.55772 25.0603 11.8624 3.51889 -1.95235 0.0 0.0 0.0 0.0 0.0 
3545.58349489 722.318 -1517.80927504 -0.486583674128 81.1345477493 -1.12509653557 0.960761 0.449317 1.24374 0.961546 0.36927 1.26981 0.970073 0.11651 1.31726 0.967797 0.323068 1.28234 -24.8831 2.01625 -4.23778 -24.8997 5.67973 -2.92329 -0.0 0.0 -0.0 4.90175 21.3705 9.54053 -14.3522 -34.1573 55.41 1.37346 -34.2284 0.422923 -85.1268 -8.46777 5.18145 -2.3421 13.833 -8.99763 -0.0 0.0 -0.0 9.52158 12.5969 -18.7264 -19.4694 13.0169 -67.119 0.71142 19.4133 -0.121692 -7.11286 0.30424 -0.856304 -2.72674 -14.3807 11.1547 0.0 0.0 0.0 2.17659 36.6583 -5.65971 -0.824954 0.0330881 0.122274 10.7555 -22.0892 -1.75889 -24.4098 0.0 0.0 -0.0 0.0 -0.0 7.21541 -3.49661 3.36476 -24.7609 -0.208831 -3.76456 30.2866 12.3967 4.13087 -4.8486 0.0 0.0 0.0 0.0 0.0 
3544.6686989 722.008 -1525.29542051 -2.41810857715 80.4134273837 0.75340109308 0.99604 0.464664 1.27122 0.996857 0.382839 1.29821 1.00588 0.125172 1.34767 1.00351 0.336422 1.311 -21.9688 1.75565 -3.36696 -21.9798 4.98327 -2.33006 -0.0 0.0 -0.0 4.06102 21.1627 8.31757 -15.2454 -35.0821 55.9698 1.43762 -35.4546 0.45958 -84.3391 -8.36921 5.20034 -2.1564 14.1595 -7.66179 -0.0 0.0 -0.0 9.7049 11.195 -19.1665 -17.9721 12.9797 -66.3857 0.668608 18.3254 -0.107845 -5.20598 0.21226 -0.630489 -2.83928 -16.0836 10.9576 0.0 0.0 0.0 2.89215 35.7551 -6.13862 -1.48854 0.0584226 0.220962 11.8714 -19.8185 -1.89065 -23.1862 0.0 0.0 -0.0 0.0 -0.0 7.03745 -2.4512 2.86827 -24.8232 -0.207295 -3.774 31.7451 12.0436 4.2796 -4.17682 0.0 0.0 0.0 0.0 0.0 
3533.26504399 719.428 -1535.96453893 2.70545202662 84.4887415591 -3.66207429464 0.66469 0.577873 1.39791 0.665645 0.487759 1.43184 0.678401 0.193803 1.50015 0.675517 0.428267 1.45074 -22.5717 1.48967 -6.44035 -22.5182 5.85912 -5.28863 -0.0 0.0 -0.0 4.4251 22.308 8.83079 -16.47 -33.078 55.7464 1.37036 -34.1682 0.421179 -85.2249 -8.48002 5.179 -2.55436 17.4524 -8.46371 -0.0 0.0 -0.0 11.0483 12.7558 -22.1068 -17.1537 12.8657 -65.0851 0.698516 19.0869 -0.117438 -4.29542 0.171007 -0.521625 -2.72374 -15.7867 10.3915 0.0 0.0 0.0 8.1896 36.3607 -9.56532 -5.4057 0.184521 0.808789 15.1137 -17.2405 -2.32038 -23.6726 0.0 0.0 -0.0 0.0 -0.0 6.01208 -4.16049 1.45082 -27.1818 -0.141653 -4.12998 35.1185 12.7643 4.64363 -6.28678 0.0 0.0 0.0 0.0 0.0 
3526.20348091 719.074 -1541.46132287 5.54477150468 86.0650097513 -6.72435381823 0.456526 0.468701 1.54851 0.457784 0.369228 1.57519 0.468618 0.0432032 1.6173 0.465092 0.298051 1.59019 -21.2676 2.17657 -7.13447 -21.2222 7.6684 -5.67069 -0.0 0.0 -0.0 4.1944 21.7496 8.50709 -18.6188 -32.2402 55.6075 1.37712 -34.2993 0.424982 -84.6089 -8.403 5.19402 -2.39742 18.6588 -6.88229 -0.0 0.0 -0.0 11.9655 15.5644 -24.0983 -14.8081 13.323 -64.5739 0.667314 18.2923 -0.107439 -2.84851 0.109034 -0.347344 -2.64035 -16.1578 9.67403 0.0 0.0 0.0 11.0432 35.5938 -10.8476 -6.49324 0.21237 0.97336 14.8962 -16.7494 -2.28039 -25.1987 0.0 0.0 -0.0 0.0 -0.0 5.6329 -4.15397 1.10311 -28.62 -0.0944453 -4.34565 38.3382 12.003 4.92902 -7.21474 0.0 0.0 0.0 0.0 0.0 
